Coordinates
version=1
nRows=11
nColumns=33
inDegrees=yes

Units are S.I. units (second, meters, Newtons, ...)
Angles are in degrees.

endheader
time	ground_thorax_rot_x	ground_thorax_rot_y	ground_thorax_rot_z	ground_thorax_tx	ground_thorax_ty	ground_thorax_tz	clav_prot_r	clav_elev_r	scapula_abduction_r	scapula_elevation_r	scapula_upward_rot_r	scapula_winging_r	shoulder_elv_r	plane_of_elev_r	axial_rot_r	elbow_flexion_r	pro_sup_r	wrist_flex_r	wrist_dev_r	clav_prot_l	clav_elev_l	scapula_abduction_l	scapula_elevation_l	scapula_upward_rot_l	scapula_winging_l	shoulder_elv_l	plane_of_elev_l	axial_rot_l	elbow_flexion_l	pro_sup_l	wrist_flex_l	wrist_dev_l	
6.1800	32.203397	24.152397	32.044949	-112.917507	857.599102	-40.244881	11.420477	33.461235	24.508926	45.000000	-45.000000	1711.535844	1515.073277	24.152103	180.000000	2884.339822	178.175953	16.685202	14.520033	-7.224108	-45.000000	-40.668809	45.000000	-30.010722	2989.929767	-4411.394607	142.127276	180.000000	2155.693997	-322.602557	13.196055	-24.109455	
6.1900	32.158662	24.171955	32.109762	-112.642502	857.246873	-40.227801	11.403741	33.433789	24.490353	45.000000	-45.000000	1711.538597	1515.027171	24.137908	180.000000	2884.259195	178.228367	16.815833	14.464701	-7.206452	-45.000000	-40.598658	45.000000	-30.091904	2989.911038	-4411.434180	142.115883	180.000000	2155.765738	-322.513107	13.076254	-24.169938	
6.2000	32.068560	24.227810	32.229038	-112.343750	856.887106	-40.222961	11.414187	33.466929	24.409991	45.000000	-45.000000	1711.601801	1515.047351	24.075173	180.000000	2884.155373	178.294653	17.045364	14.541566	-7.213665	-45.000000	-40.575204	45.000000	-30.184083	2989.818110	-4411.439838	142.215395	180.000000	2155.861608	-322.432266	12.930225	-24.240827	
6.2100	32.011425	24.256688	32.316375	-111.995064	856.504279	-40.245728	11.413794	33.466332	24.376693	45.000000	-45.000000	1711.647814	1515.041785	24.048104	180.000000	2884.107331	178.405872	17.204252	14.525039	-7.211420	-45.000000	-40.536846	45.000000	-30.252090	2989.770844	-4411.476185	142.244200	180.000000	2155.940310	-322.316576	12.797609	-24.287544	
6.2200	31.957539	24.284593	32.406546	-111.589182	856.104956	-40.295641	11.417596	33.465806	24.354293	45.000000	-45.000000	1711.696702	1515.037282	24.028624	180.000000	2884.081558	178.553239	17.344167	14.484311	-7.215770	-45.000000	-40.510569	45.000000	-30.306208	2989.733358	-4411.520077	142.262638	180.000000	2156.020647	-322.186445	12.665674	-24.320926	
6.2300	31.908823	24.307231	32.497312	-111.114926	855.694040	-40.373688	11.423233	33.463250	24.348257	45.000000	-45.000000	1711.752562	1515.036646	24.010308	180.000000	2884.072245	178.733392	17.479905	14.438478	-7.216834	-45.000000	-40.485882	45.000000	-30.340001	2989.694642	-4411.564402	142.276919	180.000000	2156.102455	-322.046195	12.543194	-24.348273	
6.2400	31.859118	24.331914	32.594799	-110.566346	855.282130	-40.476248	11.435256	33.463109	24.352457	45.000000	-45.000000	1711.802448	1515.032539	23.999528	180.000000	2884.063164	178.933641	17.598132	14.374998	-7.226058	-45.000000	-40.473929	45.000000	-30.354308	2989.662932	-4411.610074	142.284180	180.000000	2156.189623	-321.905916	12.429038	-24.373161	
6.2500	31.808378	24.355165	32.698121	-109.940528	854.881306	-40.597703	11.450293	33.465847	24.370523	45.000000	-45.000000	1711.857206	1515.033008	23.979362	180.000000	2884.043964	179.137867	17.731038	14.337009	-7.230143	-45.000000	-40.459603	45.000000	-30.343570	2989.615631	-4411.643064	142.301489	180.000000	2156.283004	-321.772255	12.332015	-24.406377	
6.2600	31.760465	24.376844	32.800624	-109.235653	854.501648	-40.732777	11.471626	33.467735	24.401244	45.000000	-45.000000	1711.895607	1515.020058	23.975364	180.000000	2884.014261	179.331693	17.833521	14.276853	-7.243997	-45.000000	-40.451564	45.000000	-30.309049	2989.576982	-4411.677305	142.302472	180.000000	2156.379393	-321.645103	12.251372	-24.446083	
6.2700	31.719458	24.390047	32.897973	-108.451304	854.150832	-40.876847	11.494869	33.467555	24.451102	45.000000	-45.000000	1711.936075	1515.005531	23.968295	180.000000	2883.976146	179.501374	17.941492	14.242453	-7.253365	-45.000000	-40.430702	45.000000	-30.247206	2989.521632	-4411.701533	142.303486	180.000000	2156.477767	-321.522318	12.193564	-24.496557	
6.2800	31.679979	24.403882	32.995956	-107.588005	853.833823	-41.026122	11.528364	33.474710	24.506265	45.000000	-45.000000	1711.966443	1514.979837	23.975700	180.000000	2883.927955	179.634587	18.021110	14.201237	-7.283322	-45.000000	-40.416254	45.000000	-30.169926	2989.463285	-4411.725986	142.298007	180.000000	2156.579488	-321.404163	12.148408	-24.557009	
